<?xml version="1.0" encoding="UTF-8"?><svg id="Layer_1" xmlns="http://www.w3.org/2000/svg" xmlns:xlink="http://www.w3.org/1999/xlink" viewBox="0 0 600 600"><defs><style>.cls-1{fill:url(#linear-gradient-2);}.cls-2{fill:url(#radial-gradient);}.cls-3{fill:url(#radial-gradient-2);}.cls-4{fill:#f5f7fa;}.cls-5{fill:url(#linear-gradient);}</style><radialGradient id="radial-gradient" cx="300.78" cy="216.15" fx="300.78" fy="216.15" r="124.34" gradientTransform="matrix(1, 0, 0, 1, 0, 0)" gradientUnits="userSpaceOnUse"><stop offset="0" stop-color="#8fecdd"/><stop offset="1" stop-color="#44e0c6"/></radialGradient><radialGradient id="radial-gradient-2" cx="299.64" cy="215.38" fx="299.64" fy="215.38" r="124.38" gradientTransform="matrix(1, 0, 0, 1, 0, 0)" gradientUnits="userSpaceOnUse"><stop offset="0" stop-color="#af94ff"/><stop offset=".41" stop-color="#9875ff"/><stop offset="1" stop-color="#7a4dff"/></radialGradient><linearGradient id="linear-gradient" x1="98.76" y1="484.93" x2="325.9" y2="484.93" gradientTransform="matrix(1, 0, 0, 1, 0, 0)" gradientUnits="userSpaceOnUse"><stop offset="0" stop-color="#8fecdd"/><stop offset="1" stop-color="#44e0c6"/></linearGradient><linearGradient id="linear-gradient-2" x1="331.71" y1="483.85" x2="501.24" y2="483.85" gradientTransform="matrix(1, 0, 0, 1, 0, 0)" gradientUnits="userSpaceOnUse"><stop offset="0" stop-color="#af94ff"/><stop offset="1" stop-color="#7a4dff"/></linearGradient></defs><path class="cls-2" d="M300.46,99.65c31.94,0,55.11,23.18,55.11,55.11,0,16.09-13.56,35.99-37.54,69.78-11.57,16.31-30.85,43.49-32.65,52.23,.27,7.83,7.2,14.6,15.08,14.6h99.71l38.66-38.66-37.2-138.83-138.83-37.2-23.02,23.02c28.08-.04,53.24-.08,60.68-.08Z"/><path class="cls-3" d="M300.46,331.42c-30.39,0-55.11-24.72-55.11-55.11,0-17.59,15.22-39.93,40.04-74.92,11.18-15.76,27.98-39.43,30.14-47.44-.41-12.86-10.63-14.27-15.07-14.27-10.94,0-60.24,.07-100.77,.14l-38.52,38.52,37.2,138.83,138.83,37.2,22.94-22.94h-59.68Z"/><g><path class="cls-4" d="M225.48,122.63c-1.5,0-2.72-1.21-2.73-2.72,0-1.51,1.21-2.73,2.72-2.74l10.91-.04h.01c1.5,0,2.72,1.21,2.73,2.72,0,1.51-1.21,2.73-2.72,2.74l-10.91,.04h-.01Z"/><path class="cls-4" d="M341.85,314.14h-22.35c-1.51,0-2.73-1.22-2.73-2.73s1.22-2.73,2.73-2.73h22.35c1.51,0,2.73,1.22,2.73,2.73s-1.22,2.73-2.73,2.73Zm-44.7-.16c-.09,0-.18,0-.27-.01-8.05-.78-15.53-4.1-21.63-9.61-1.12-1.01-1.21-2.74-.19-3.86,1.01-1.12,2.73-1.2,3.85-.2,5.22,4.72,11.62,7.57,18.5,8.23,1.5,.15,2.6,1.48,2.45,2.98-.14,1.41-1.32,2.47-2.71,2.47Zm-31.06-27.95c-1.27,0-2.4-.88-2.67-2.17-.52-2.48-.78-5.02-.78-7.55,0-3.92,1.59-9.05,4.86-15.69,.67-1.35,2.3-1.9,3.66-1.24,1.35,.67,1.91,2.3,1.24,3.66-2.85,5.79-4.3,10.25-4.3,13.27,0,2.16,.22,4.32,.67,6.43,.31,1.47-.64,2.92-2.11,3.23-.19,.04-.38,.06-.56,.06Zm15.19-40.76c-.51,0-1.03-.14-1.49-.44-1.26-.82-1.62-2.51-.8-3.78,3.35-5.14,7.37-11.04,12.66-18.57,.86-1.23,2.57-1.53,3.8-.67s1.53,2.57,.67,3.8c-5.25,7.48-9.24,13.33-12.55,18.42-.52,.8-1.4,1.24-2.29,1.24Zm25.54-36.77c-.54,0-1.09-.16-1.57-.5-1.23-.87-1.52-2.57-.65-3.8,3.94-5.59,8.53-12.13,12.67-18.36,.84-1.25,2.53-1.6,3.78-.76,1.26,.83,1.6,2.53,.76,3.78-4.17,6.28-8.79,12.87-12.76,18.48-.53,.75-1.38,1.15-2.23,1.15Zm24.28-37.58c-.42,0-.84-.1-1.24-.3-1.34-.68-1.88-2.33-1.19-3.67,2.77-5.43,4.17-9.53,4.17-12.18,0-2.6-.24-5.12-.71-7.5-.29-1.48,.67-2.91,2.15-3.2,1.49-.29,2.91,.67,3.2,2.15,.54,2.73,.81,5.6,.81,8.55,0,3.58-1.56,8.37-4.77,14.67-.48,.95-1.44,1.49-2.43,1.49Zm-7.2-40.44c-.62,0-1.25-.21-1.76-.64-5.08-4.29-11.62-6.83-18.89-7.35-1.5-.11-2.64-1.41-2.53-2.91,.11-1.51,1.4-2.66,2.91-2.53,8.44,.6,16.06,3.58,22.03,8.62,1.15,.97,1.3,2.69,.32,3.85-.54,.64-1.31,.97-2.09,.97Zm-65.16-7.98c-1.5,0-2.72-1.22-2.73-2.72,0-1.51,1.21-2.73,2.72-2.74l22.35-.07h0c1.5,0,2.72,1.22,2.73,2.72,0,1.51-1.21,2.73-2.72,2.74l-22.35,.07h0Z"/><path class="cls-4" d="M374.95,314.14h-10.91c-1.51,0-2.73-1.22-2.73-2.73s1.22-2.73,2.73-2.73h10.91c1.51,0,2.73,1.22,2.73,2.73s-1.22,2.73-2.73,2.73Z"/></g><g><path class="cls-5" d="M157.88,458.31l-39.14,49.8h39.14v13.84h-59.11v-11.74l39.14-49.8h-39.03v-13.84h59v11.74Zm34.56,10.07c7.5,0,13.6,2.54,18.3,7.62,4.7,5.08,7.05,11.67,7.05,19.78,0,1.79-.09,3.37-.27,4.74h-36.98c.68,3.63,2.22,6.33,4.6,8.13,2.39,1.79,5.32,2.69,8.8,2.69,4.85,0,9.24-1.67,13.19-5.01l8.24,9.04c-5.81,5.28-13.23,7.91-22.23,7.91-8,0-14.52-2.51-19.54-7.54-5.02-5.02-7.54-11.61-7.54-19.76s2.44-14.83,7.32-19.95c4.88-5.11,11.23-7.67,19.06-7.67Zm-.11,12.11c-3.27,0-5.88,.91-7.83,2.72-1.96,1.81-3.26,4.39-3.9,7.73h23.1c-.65-3.37-1.94-5.96-3.88-7.75-1.94-1.79-4.43-2.69-7.48-2.69Zm65.25-12.11c2.8,0,5.24,.38,7.32,1.13l-2.1,13.94c-2.51-1.11-5.35-1.67-8.51-1.67-3.34,0-6,1.01-7.99,3.04-1.99,2.03-2.99,4.93-2.99,8.69v28.42h-14.05v-52.17h13.62v5.71c3.16-4.74,8.06-7.11,14.7-7.11Zm40.05,0c8.11,0,14.85,2.61,20.21,7.83,5.36,5.22,8.05,11.76,8.05,19.62s-2.68,14.4-8.05,19.62c-5.37,5.22-12.1,7.83-20.21,7.83s-14.79-2.61-20.13-7.83c-5.35-5.22-8.02-11.76-8.02-19.62s2.67-14.4,8.02-19.62c5.35-5.22,12.06-7.83,20.13-7.83Zm0,13.08c-3.98,0-7.29,1.35-9.91,4.04-2.62,2.69-3.93,6.14-3.93,10.34s1.31,7.64,3.93,10.34c2.62,2.69,5.92,4.04,9.91,4.04s7.34-1.35,9.96-4.04c2.62-2.69,3.93-6.14,3.93-10.34s-1.31-7.64-3.93-10.34c-2.62-2.69-5.94-4.04-9.96-4.04Z"/><path class="cls-1" d="M393.46,460.62h-23.36v61.32h-15.02v-61.32h-23.36v-14.05h61.75v14.05Zm25.19,7.75c8.11,0,14.85,2.61,20.21,7.83,5.36,5.22,8.05,11.76,8.05,19.62s-2.68,14.4-8.05,19.62c-5.37,5.22-12.1,7.83-20.21,7.83s-14.79-2.61-20.13-7.83c-5.35-5.22-8.02-11.76-8.02-19.62s2.67-14.4,8.02-19.62c5.35-5.22,12.06-7.83,20.13-7.83Zm0,13.08c-3.98,0-7.29,1.35-9.91,4.04-2.62,2.69-3.93,6.14-3.93,10.34s1.31,7.64,3.93,10.34c2.62,2.69,5.92,4.04,9.91,4.04s7.34-1.35,9.96-4.04c2.62-2.69,3.93-6.14,3.93-10.34s-1.31-7.64-3.93-10.34c-2.62-2.69-5.94-4.04-9.96-4.04Zm53.78,40.48h-14.05v-77.52h14.05v77.52Zm28.8,0h-14.05v-77.52h14.05v77.52Z"/></g></svg>