<?xml version="1.0" encoding="UTF-8"?><svg id="Layer_1" xmlns="http://www.w3.org/2000/svg" viewBox="0 0 600 600"><defs><style>.cls-1{fill:#7a4dff;}</style></defs><g><path class="cls-1" d="M300.83,94.02c56.76,0,97.96,41.2,97.96,97.96,0,28.6-24.11,63.97-66.73,124.04-20.57,28.99-54.84,77.3-58.04,92.84,.48,13.92,12.8,25.96,26.8,25.96h177.22l68.71-68.71-66.12-246.76L233.88,53.24l-40.92,40.92c49.91-.07,94.63-.14,107.86-.14Z"/><path class="cls-1" d="M300.83,505.98c-54.02,0-97.96-43.94-97.96-97.96,0-31.26,27.04-70.97,71.17-133.16,19.88-28.02,49.73-70.09,53.58-84.32-.74-22.85-18.89-25.36-26.79-25.36-19.44,0-107.07,.13-179.12,.25L53.24,233.88l66.12,246.76,246.76,66.12,40.78-40.78h-106.07Z"/></g><g><path class="cls-1" d="M167.55,134.85c-2.67,0-4.84-2.16-4.85-4.83-.01-2.68,2.15-4.86,4.83-4.87l19.4-.08h.02c2.67,0,4.84,2.16,4.85,4.83,.01,2.68-2.15,4.86-4.83,4.87l-19.4,.08h-.02Z"/><path class="cls-1" d="M374.38,475.25h-39.73c-2.68,0-4.85-2.17-4.85-4.85s2.17-4.85,4.85-4.85h39.73c2.68,0,4.85,2.17,4.85,4.85s-2.17,4.85-4.85,4.85Zm-79.45-.28c-.16,0-.31,0-.47-.02-14.31-1.38-27.61-7.29-38.45-17.09-1.99-1.8-2.14-4.86-.35-6.85,1.79-1.99,4.86-2.14,6.85-.35,9.29,8.39,20.65,13.45,32.87,14.63,2.67,.26,4.62,2.63,4.36,5.3-.24,2.51-2.35,4.38-4.82,4.38Zm-55.21-49.67c-2.25,0-4.27-1.57-4.74-3.86-.92-4.4-1.39-8.92-1.39-13.42,0-6.97,2.83-16.09,8.64-27.88,1.18-2.4,4.09-3.39,6.5-2.21,2.4,1.18,3.39,4.09,2.21,6.5-5.07,10.29-7.64,18.23-7.64,23.6,0,3.83,.4,7.68,1.18,11.44,.55,2.62-1.13,5.19-3.76,5.74-.33,.07-.67,.1-1,.1Zm27-72.45c-.91,0-1.83-.25-2.64-.79-2.25-1.46-2.88-4.47-1.42-6.71,5.96-9.14,13.11-19.63,22.5-33.01,1.54-2.2,4.56-2.72,6.76-1.18s2.72,4.57,1.18,6.76c-9.33,13.29-16.42,23.69-22.31,32.73-.93,1.42-2.48,2.2-4.07,2.2Zm45.39-65.35c-.97,0-1.94-.29-2.79-.89-2.19-1.55-2.71-4.57-1.16-6.76,7.01-9.93,15.17-21.57,22.52-32.63,1.48-2.23,4.49-2.84,6.73-1.36,2.23,1.48,2.84,4.49,1.36,6.73-7.42,11.16-15.63,22.87-22.68,32.86-.94,1.34-2.44,2.05-3.97,2.05Zm43.15-66.79c-.74,0-1.5-.17-2.2-.53-2.39-1.22-3.34-4.14-2.12-6.53,4.92-9.65,7.42-16.94,7.42-21.66,0-4.61-.42-9.1-1.25-13.33-.52-2.63,1.2-5.18,3.82-5.69,2.65-.52,5.18,1.2,5.69,3.82,.95,4.84,1.44,9.96,1.44,15.2,0,6.35-2.77,14.88-8.48,26.07-.86,1.68-2.56,2.65-4.33,2.65Zm-12.79-71.88c-1.1,0-2.22-.38-3.13-1.14-9.03-7.62-20.65-12.14-33.58-13.06-2.67-.19-4.69-2.51-4.5-5.18,.19-2.68,2.49-4.72,5.18-4.5,15,1.06,28.54,6.36,39.16,15.32,2.05,1.73,2.31,4.79,.58,6.84-.96,1.14-2.33,1.72-3.71,1.72Zm-115.82-14.19c-2.67,0-4.84-2.16-4.85-4.83,0-2.68,2.16-4.86,4.83-4.87l39.73-.12h.01c2.67,0,4.84,2.16,4.85,4.84,0,2.68-2.16,4.86-4.84,4.86l-39.72,.12h-.02Z"/><path class="cls-1" d="M433.22,475.25h-19.4c-2.68,0-4.85-2.17-4.85-4.85s2.17-4.85,4.85-4.85h19.4c2.68,0,4.85,2.17,4.85,4.85s-2.17,4.85-4.85,4.85Z"/></g></svg>