<?xml version="1.0" encoding="UTF-8"?><svg id="Layer_1" xmlns="http://www.w3.org/2000/svg" viewBox="0 0 600 600"><defs><style>.cls-1,.cls-2{fill:#7a4dff;}.cls-2{font-family:Mark-Bold, Mark-Bold;font-size:107.67px;}</style></defs><g><g><path class="cls-1" d="M299.25,135.18c25.93,0,44.75,18.82,44.75,44.75,0,13.06-11.01,29.22-30.48,56.66-9.4,13.24-25.05,35.31-26.51,42.41,.22,6.36,5.85,11.86,12.24,11.86h80.95l31.39-31.39-30.2-112.71-112.71-30.2-18.69,18.69c22.8-.03,43.23-.06,49.27-.06Z"/><path class="cls-1" d="M299.25,323.36c-24.67,0-44.75-20.07-44.75-44.75,0-14.28,12.35-32.42,32.51-60.83,9.08-12.8,22.71-32.02,24.47-38.52-.34-10.44-8.63-11.58-12.24-11.58-8.88,0-48.91,.06-81.82,.11l-31.27,31.27,30.2,112.71,112.71,30.2,18.63-18.63h-48.45Z"/></g><g><path class="cls-1" d="M238.37,153.83c-1.22,0-2.21-.99-2.22-2.21,0-1.22,.98-2.22,2.21-2.22l8.86-.03h0c1.22,0,2.21,.99,2.22,2.21,0,1.22-.98,2.22-2.21,2.22l-8.86,.03h0Z"/><path class="cls-1" d="M332.85,309.32h-18.15c-1.22,0-2.22-.99-2.22-2.22s.99-2.22,2.22-2.22h18.15c1.22,0,2.22,.99,2.22,2.22s-.99,2.22-2.22,2.22Zm-36.29-.13c-.07,0-.14,0-.22-.01-6.54-.63-12.61-3.33-17.56-7.8-.91-.82-.98-2.22-.16-3.13,.82-.91,2.22-.98,3.13-.16,4.24,3.83,9.43,6.14,15.02,6.68,1.22,.12,2.11,1.2,1.99,2.42-.11,1.15-1.08,2-2.2,2Zm-25.22-22.69c-1.03,0-1.95-.72-2.17-1.76-.42-2.01-.63-4.07-.63-6.13,0-3.18,1.29-7.35,3.95-12.74,.54-1.1,1.87-1.55,2.97-1.01,1.1,.54,1.55,1.87,1.01,2.97-2.32,4.7-3.49,8.33-3.49,10.78,0,1.75,.18,3.51,.54,5.22,.25,1.2-.52,2.37-1.72,2.62-.15,.03-.31,.05-.46,.05Zm12.33-33.09c-.41,0-.83-.12-1.21-.36-1.03-.67-1.31-2.04-.65-3.07,2.72-4.18,5.99-8.97,10.28-15.08,.7-1,2.08-1.24,3.09-.54s1.24,2.09,.54,3.09c-4.26,6.07-7.5,10.82-10.19,14.95-.42,.65-1.13,1.01-1.86,1.01Zm20.73-29.85c-.44,0-.89-.13-1.28-.41-1-.71-1.24-2.09-.53-3.09,3.2-4.53,6.93-9.85,10.29-14.9,.68-1.02,2.05-1.3,3.07-.62,1.02,.68,1.3,2.05,.62,3.07-3.39,5.1-7.14,10.45-10.36,15.01-.43,.61-1.12,.94-1.81,.94Zm19.71-30.51c-.34,0-.68-.08-1-.24-1.09-.56-1.52-1.89-.97-2.98,2.25-4.41,3.39-7.74,3.39-9.89,0-2.11-.19-4.16-.57-6.09-.24-1.2,.55-2.37,1.75-2.6,1.21-.24,2.37,.55,2.6,1.75,.43,2.21,.66,4.55,.66,6.94,0,2.9-1.27,6.8-3.87,11.91-.39,.77-1.17,1.21-1.98,1.21Zm-5.84-32.83c-.5,0-1.01-.17-1.43-.52-4.13-3.48-9.43-5.54-15.34-5.96-1.22-.09-2.14-1.15-2.05-2.37,.09-1.22,1.14-2.16,2.37-2.05,6.85,.49,13.04,2.91,17.89,7,.93,.79,1.05,2.19,.26,3.12-.44,.52-1.06,.79-1.69,.79Zm-52.9-6.48c-1.22,0-2.21-.99-2.22-2.21,0-1.22,.98-2.22,2.21-2.22l18.15-.06h0c1.22,0,2.21,.99,2.22,2.21,0,1.22-.99,2.22-2.21,2.22l-18.14,.06h0Z"/><path class="cls-1" d="M359.72,309.32h-8.86c-1.22,0-2.22-.99-2.22-2.22s.99-2.22,2.22-2.22h8.86c1.22,0,2.22,.99,2.22,2.22s-.99,2.22-2.22,2.22Z"/></g></g><text class="cls-2" transform="translate(92.52 457.98)"><tspan x="0" y="0">ZeroToll</tspan></text></svg>